<?xml version="1.0" encoding="utf-8"?>
<!-- Generator: Adobe Illustrator 26.5.0, SVG Export Plug-In . SVG Version: 6.00 Build 0)  -->
<svg version="1.1" id="Layer_1" xmlns="http://www.w3.org/2000/svg" xmlns:xlink="http://www.w3.org/1999/xlink" x="0px" y="0px"
	 viewBox="0 0 512 512" style="enable-background:new 0 0 512 512;" xml:space="preserve">
<style type="text/css">
	.st0{fill:#E5E5E5;}
	.st1{fill:#D9D9D9;}
	.st2{fill:#4455B7;}
	.st3{fill:#518FF5;}
	.st4{fill:#607B88;}
	.st5{fill:#FFFFFF;}
</style>
<g id="XMLID_22_">
	<path id="XMLID_24_" class="st0" d="M479.74,511.58H279.71l-63.68-409.74H479.6c17.81,0,32.26,14.45,32.26,32.26v345.21
		C512,497.13,497.55,511.58,479.74,511.58z"/>
	<path id="XMLID_28_" class="st1" d="M479.74,511.58H279.71l-63.68-409.74h56.53L512,339.46v139.85
		C512,497.13,497.55,511.58,479.74,511.58z"/>
	<polygon id="XMLID_29_" class="st2" points="279.71,511.58 367.66,415.07 246.6,415.07 	"/>
	<path id="XMLID_30_" class="st3" d="M32.26,0.42h201.71l133.54,414.79H32.26C14.45,415.21,0,400.76,0,382.95V32.68
		C0,14.87,14.45,0.42,32.26,0.42z"/>
	<path id="XMLID_31_" class="st4" d="M437.51,241.97h42.08v-19.64h-95.95v-31.84h-32.26v32.26h-51.9v19.22h114.74
		c0,0-6.87,32.82-34.65,63.12c-21.04-24.83-26.79-39-26.79-39h-25.53c0,0,4.91,11.92,21.04,35.91c2.95,4.35,8.7,11.22,15.85,19.08
		c-21.18,21.74-32.96,32.4-32.96,32.4l16.13,13.47c0,0,14.87-13.47,31.28-30.16c26.79,28.34,60.18,61.16,60.18,61.16l15.29-16.55
		c0,0-19.78-18.8-56.11-56.11c-1.4-1.54-2.81-2.95-4.21-4.35c6.03-6.59,11.64-13.19,16.27-19.36
		C431.34,273.81,437.51,241.97,437.51,241.97z"/>
	<path id="XMLID_32_" class="st5" d="M143.08,189.51c0,10.94,0,21.88,0,32.82c15.29,0,30.58,0,45.73,0
		c-1.82,10.52-8,20.06-16.83,25.95c-5.61,3.79-11.92,6.17-18.52,7.29c-6.59,1.12-13.47,1.26-20.06,0
		c-6.73-1.4-13.05-4.07-18.66-8.14c-8.98-6.31-15.71-15.43-19.22-25.81c-3.65-10.52-3.65-22.16,0-32.68
		c2.52-7.43,6.73-14.17,12.2-19.78c6.73-6.87,15.57-11.92,25.11-13.89c8.14-1.68,16.69-1.4,24.69,0.98
		c6.73,2.1,13.05,5.75,18.1,10.66c5.19-5.19,10.24-10.24,15.43-15.43c2.67-2.81,5.61-5.47,8.14-8.28
		c-7.86-7.29-16.97-13.05-27.07-16.69c-18.1-6.59-38.44-6.73-56.53-0.56c-20.48,7.01-37.87,22.3-47.55,41.66
		c-3.37,6.73-5.89,13.75-7.29,21.04c-3.65,18.24-1.12,37.73,7.29,54.29c5.47,10.8,13.33,20.48,22.86,28.05
		c8.98,7.15,19.5,12.48,30.58,15.43c14.03,3.79,28.9,3.65,42.92,0.42c12.76-2.95,24.83-8.98,34.37-17.96
		c10.1-9.4,17.39-21.6,21.18-34.93c4.21-14.45,4.77-29.88,2.1-44.61C195.68,189.51,169.31,189.51,143.08,189.51z"/>
</g>
</svg>
